<svg xmlns="http://www.w3.org/2000/svg" viewBox="0 0 34.3 30.8"><title>Sin título-2</title><g id="Capa_1" data-name="Capa 1"><path d="M4.7,22a2.4,2.4,0,0,0-3.8.6c-.9,1.9-.6,3.2.9,3.4a8.6,8.6,0,0,1,2.5.4c.7.3,0,3.7.8,3.9a3.8,3.8,0,0,0,3-.6c1.2-.9.9-4.4,1.2-5.2S24.5,13.2,27.1,11.6s2.1-.2,4.2-.3,3.1-1.1,3-2.8-1.4-1.7-2.2-3.1S34.5,1.2,32,.5a4.2,4.2,0,0,0-4,1.6c-.7,1.4-1.6,3.9-1.3,4.8Z" style="fill:#e3e9ed"/><path d="M28.5,4.7h-.1a.4.4,0,0,1-.2-.5,4.4,4.4,0,0,1,1.5-2.1.4.4,0,0,1,.4.6,3.6,3.6,0,0,0-1.3,1.7A.4.4,0,0,1,28.5,4.7Z" style="fill:#bac8d3"/><path d="M30.7,10.4h-.1L29,9.9a.4.4,0,1,1,.2-.7l1.6.5a.4.4,0,0,1-.1.7Z" style="fill:#bac8d3"/><path d="M7.2,27.9H7a.4.4,0,0,1,0-.5,2,2,0,0,0,.5-1.1.4.4,0,0,1,.7.1,2.8,2.8,0,0,1-.7,1.5Z" style="fill:#bac8d3"/></g></svg>