<svg xmlns="http://www.w3.org/2000/svg" viewBox="0 0 36 32.2"><title>Sin título-2</title><g id="Capa_1" data-name="Capa 1"><path d="M31,22.9a2.4,2.4,0,0,1,3.8.6c.9,1.9.6,3.2-.9,3.4a8.6,8.6,0,0,0-2.5.4c-.7.3,0,3.7-.8,3.9a3.8,3.8,0,0,1-3-.6c-1.2-.9-.9-4.4-1.2-5.2S11.1,14.1,8.6,12.4s-2.1-.2-4.2-.3S1.2,11,1.4,9.4,2.8,7.7,3.6,6.2s-2.4-4.1.1-4.9a4.2,4.2,0,0,1,4,1.6C8.4,4.3,9.3,6.8,9,7.7Z" style="fill:#e3e9ed"/><path d="M7.2,5.6a.4.4,0,0,1-.4-.3A3.6,3.6,0,0,0,5.5,3.6.4.4,0,0,1,6,3,4.4,4.4,0,0,1,7.5,5.1a.4.4,0,0,1-.2.5Z" style="fill:#bac8d3"/><path d="M4.9,11.3a.4.4,0,0,1-.1-.7l1.6-.5a.4.4,0,0,1,.2.7l-1.6.5Z" style="fill:#bac8d3"/><path d="M28.4,28.7h-.3a2.8,2.8,0,0,1-.7-1.5.4.4,0,1,1,.7-.1,2,2,0,0,0,.5,1.1.4.4,0,0,1,0,.5Z" style="fill:#bac8d3"/></g></svg>