<svg xmlns="http://www.w3.org/2000/svg" viewBox="0 0 53.8 86.8"><title>Sin título-2</title><g id="Capa_1" data-name="Capa 1"><path d="M30.1,8.9a54.1,54.1,0,0,0-.4-7.4C29.4-.2,27.8-.2,27,.9a1.4,1.4,0,0,0-2.6.9L23.4,9c-.3,1.9-1,4.5-.8,6.4s4.4,3,6.3,2.4a1.9,1.9,0,0,0,1.1-1.4C30.5,14.1,30.2,11.3,30.1,8.9Z" style="fill:#e3e9ed"/><path d="M30.1,8.5a50.2,50.2,0,0,0-.4-6.9C29.4-.2,27.8-.2,27,.9a1.4,1.4,0,0,0-2.6.9l-.9,6.7A47.2,47.2,0,0,0,30.1,8.5Z" style="fill:#cfd9e0"/><path d="M26.9,11.9a6.5,6.5,0,0,1-2.9-.7.4.4,0,1,1,.3-.7,5.8,5.8,0,0,0,4.9.1.4.4,0,1,1,.3.7A6.5,6.5,0,0,1,26.9,11.9Z" style="fill:#bac8d3"/><path d="M27.8,23.7a.4.4,0,0,1-.4-.3,7.9,7.9,0,0,1-.1-2.7.4.4,0,0,1,.4-.3.4.4,0,0,1,.3.4,7.2,7.2,0,0,0,.1,2.5.4.4,0,0,1-.3.4Z" style="fill:#cfd9e0"/><path d="M52,12c-.8-2.7-7.8,1.5-9.5,2a41.8,41.8,0,0,1-12.8,1.7,54.1,54.1,0,0,1-12.5-1.7,56.2,56.2,0,0,1-5.7-1.8c-1.7-.6-3.4-1.9-5-2.3s-2.8,1.2-2.8,2.7,2.1,2.9,3.8,3.8a41.8,41.8,0,0,0,12.1,3.9,61.4,61.4,0,0,0,20.1-.1C44.3,19.7,53.7,17.8,52,12Z" style="fill:#f8fafb"/><path d="M25.8,28.7a1.3,1.3,0,0,0-1.6-1.2A35,35,0,0,1,7.8,24.8a1.7,1.7,0,0,0-2.4.9c-1.1,3.3,3.2,4.5,6.1,5.2a26.7,26.7,0,0,0,13.7.2A1.4,1.4,0,0,0,25.8,28.7Z" style="fill:#cfd9e0"/><path d="M44,26.4a77,77,0,0,1-16.1,1.5,1.6,1.6,0,0,0-1.3,2.7,1.7,1.7,0,0,0,1,.6c5.2,1.1,14.3,2.1,18.1-2.1C46.8,27.8,45.8,26,44,26.4Z" style="fill:#cfd9e0"/><path d="M25.7,36.2a2.3,2.3,0,0,0-2.1-.2,36.2,36.2,0,0,1-10.6,2.3c-2.5.2-4.8.4-7,1.6s-1,3.2,1,3.3a54.7,54.7,0,0,0,11.1-1c3.1-.6,6.6-.9,9.1-2.6A1.8,1.8,0,0,0,25.7,36.2Z" style="fill:#cfd9e0"/><path d="M46.2,39.4A123.9,123.9,0,0,1,29,35.6a1.8,1.8,0,0,0-2.4,1.9,1.8,1.8,0,0,0,1.2,2.4c5.6,1.9,13,5.5,18.9,2.7A1.7,1.7,0,0,0,46.2,39.4Z" style="fill:#cfd9e0"/><path d="M24.4,46.8h-.1a2.6,2.6,0,0,0-2.2-.1,30.6,30.6,0,0,1-6.6,1.8,7.5,7.5,0,0,0-4.4,1.7c-1.4,1.4-.3,3.3,1.6,3.5a21.6,21.6,0,0,0,13.9-3.4A2.1,2.1,0,1,0,24.4,46.8Z" style="fill:#cfd9e0"/><path d="M43.4,51.5c-1.8-1.3-3.5-1.4-5.8-1.6a12.2,12.2,0,0,1-7-3,2.5,2.5,0,0,0-4.1,1.5c-.9.9-1.1,2.4.5,3,4.7,1.9,9.4,3.6,14.6,3.6C43.6,55,45.1,52.6,43.4,51.5Z" style="fill:#cfd9e0"/><path d="M33.4,27.7H27.9a1.6,1.6,0,0,0-1.7,1.3l-.3-.4a1.3,1.3,0,0,0-1.6-1.2,38.1,38.1,0,0,1-4.8,0,12.3,12.3,0,0,1,.7,4.4,25.2,25.2,0,0,0,4.9-.8,1.4,1.4,0,0,0,1.1-1l.3.4a1.7,1.7,0,0,0,1,.6,48,48,0,0,0,5.1.8C32.9,30.4,33.2,29.1,33.4,27.7Z" style="fill:#bac8d3"/><path d="M32.6,36.6l-3.6-1a1.8,1.8,0,0,0-2.1.7,1.7,1.7,0,0,0-1.2,0,2.3,2.3,0,0,0-2.1-.2l-4.1,1.3A8.1,8.1,0,0,1,19,42c2.8-.5,5.8-.9,8.2-2.4l.6.4,4.4,1.6A11.9,11.9,0,0,1,32.6,36.6Z" style="fill:#bac8d3"/><path d="M33.7,48.8a12.4,12.4,0,0,1-3-2,2.5,2.5,0,0,0-3.5.2,2,2,0,0,0-2.7-.3h-.1a2.6,2.6,0,0,0-2.2-.1l-2.8.9a12.6,12.6,0,0,1-.1,5.6,21,21,0,0,0,6.9-2.7,2,2,0,0,0,1,.8c2.2.9,4.3,1.7,6.5,2.3A33.1,33.1,0,0,0,33.7,48.8Z" style="fill:#bac8d3"/><path d="M29.5,42.7V25.1c0-2.8.8-6.6-2.6-8.1a1.8,1.8,0,0,0-1.8.2c-1-.3-2.2.1-2.2,1.3.4,11.6.3,23.1-.4,34.7-.1,1.3-3.1,19.7,4.3,15.1,2.5-1.5,2.3-7,2.5-9.3A150,150,0,0,0,29.5,42.7Z" style="fill:#e3e9ed"/><path d="M23.8,31.8c1.5.9,4.1-.3,5.6-1.6V25.1c0-2.8.8-6.6-2.6-8.1a1.8,1.8,0,0,0-1.8.2c-1-.3-2.2.1-2.2,1.3.1,4.2.2,8.4.2,12.6Z" style="fill:#f8fafb"/><path d="M42,68.9h-.1a7.7,7.7,0,0,1,4.8,5.7c.6,3.1-.8,5.7-3.6,7.3h0C51.7,81,51.2,67.5,42,68.9Z" style="fill:#bac8d3"/><path d="M46.5,64.5c-6.5-1.9-7.8,9.8-14.6-.3-3.5-5.2-5.7-4.3-11.5,1.9-.8.9-3.3.8-4.2.1C7.1,58.8,1.2,68.5.9,75.6c-.3,11.8,10.4,12,21.3,4.7,8.2-5.5,16.7,9.7,25.4,4.1C54.1,80.2,55.6,67.2,46.5,64.5ZM11.3,81.1c-9.1,1-9.4-11.8-1.2-13S20.1,80.1,11.3,81.1Zm31.9.9c-8.9,1-9.2-11.8-1.2-13S51.7,81,43.2,81.9Z" style="fill:#e3e9ed"/><path d="M7.4,75.1A8.6,8.6,0,0,1,12.6,68a8.1,8.1,0,0,0-2.5,0c-7.8,1.2-8,12.6-.3,13.1A6.3,6.3,0,0,1,7.4,75.1Z" style="fill:#bac8d3"/><path d="M29.4,55.6a20.4,20.4,0,0,0,4.3,11c-15.2.9-15.7,0-15.7,0a16.7,16.7,0,0,0,4-11A36.7,36.7,0,0,0,29.4,55.6Z" style="fill:#e3e9ed"/><path d="M49.9,69.4a.4.4,0,0,1-.3-.2,5.1,5.1,0,0,0-4.4-2.7.4.4,0,1,1,.1-.7,5.8,5.8,0,0,1,5,3.2.4.4,0,0,1-.2.5Z" style="fill:#bac8d3"/><path d="M50.3,72.2h-.2a.4.4,0,0,1-.1-.5,1,1,0,0,0,.2-.7.4.4,0,0,1,.7-.1,1.7,1.7,0,0,1-.3,1.2Z" style="fill:#bac8d3"/><path d="M13.6,14.5h0a10.6,10.6,0,0,1-6.7-2.9.4.4,0,0,1,.5-.5,9.8,9.8,0,0,0,6.2,2.7.4.4,0,0,1,0,.7Z" style="fill:#cfd9e0"/><path d="M41.2,16.2h-.3a.4.4,0,0,1-.4-.4.4.4,0,0,1,.4-.4c1.8.1,3.3-.8,4.9-1.7a18.8,18.8,0,0,1,2.9-1.4.4.4,0,1,1,.3.7,18.3,18.3,0,0,0-2.7,1.4A10.4,10.4,0,0,1,41.2,16.2Z" style="fill:#cfd9e0"/><path d="M23.8,28h-.1a.4.4,0,0,1-.3-.5,24,24,0,0,0,.8-9.3.4.4,0,0,1,.3-.4.4.4,0,0,1,.4.3,24.8,24.8,0,0,1-.8,9.6A.4.4,0,0,1,23.8,28Z" style="fill:#cfd9e0"/><path d="M26.2,39a4.8,4.8,0,0,1-2.4-.6.4.4,0,0,1,.4-.6,4.2,4.2,0,0,0,3.8.1.4.4,0,0,1,.3.7A4.8,4.8,0,0,1,26.2,39Z" style="fill:#bac8d3"/><path d="M25.9,45h-.8a2.6,2.6,0,0,1-1.7-1.2.4.4,0,0,1,.1-.5.4.4,0,0,1,.5.1,1.9,1.9,0,0,0,1.2.8,2.2,2.2,0,0,0,1.7-.2.4.4,0,1,1,.4.6A2.8,2.8,0,0,1,25.9,45Z" style="fill:#bac8d3"/><path d="M25.6,51.7a3.3,3.3,0,0,1-2.2-.8.4.4,0,0,1,.5-.6,2.7,2.7,0,0,0,3,.2.4.4,0,1,1,.4.6A3.3,3.3,0,0,1,25.6,51.7Z" style="fill:#bac8d3"/><path d="M25.7,58.5a5.2,5.2,0,0,1-2.8-.8.4.4,0,1,1,.4-.6,4.5,4.5,0,0,0,3.5.6.4.4,0,1,1,.2.7Z" style="fill:#bac8d3"/><path d="M25.4,63.6a7.2,7.2,0,0,1-2.6-.5.4.4,0,0,1,.3-.7,6.6,6.6,0,0,0,5-.1.4.4,0,0,1,.3.7A7.2,7.2,0,0,1,25.4,63.6Z" style="fill:#bac8d3"/><path d="M24.4,69.2a6.6,6.6,0,0,1-3.7-1.1.4.4,0,0,1,.4-.6,6.2,6.2,0,0,0,6.9-.2.4.4,0,1,1,.5.6A6.6,6.6,0,0,1,24.4,69.2Z" style="fill:#bac8d3"/><path d="M25.9,35.2a5.3,5.3,0,0,1-1.8-.3.4.4,0,0,1,.3-.7A4.7,4.7,0,0,0,28,34a.4.4,0,1,1,.3.7A5.4,5.4,0,0,1,25.9,35.2Z" style="fill:#bac8d3"/><path d="M19.7,80.6h-.3a.4.4,0,0,1,0-.5,9.6,9.6,0,0,1,9-2.2l2.1.8.7.3a.4.4,0,1,1-.3.7l-.7-.3-2-.8a8.8,8.8,0,0,0-8.2,2Z" style="fill:#bac8d3"/><path d="M9,84.5a8.3,8.3,0,0,1-2.8-.6c-1.1-.4-1.7-.9-1.8-1.6a.4.4,0,0,1,.3-.4.4.4,0,0,1,.4.3c0,.4.5.7,1.3,1a5.4,5.4,0,0,0,4.2.2.4.4,0,1,1,.3.7A4.2,4.2,0,0,1,9,84.5Z" style="fill:#bac8d3"/></g></svg>