<svg xmlns="http://www.w3.org/2000/svg" viewBox="0 0 39 68.3"><title>Sin título-2</title><g id="Capa_1" data-name="Capa 1"><path d="M13.4,12.4c-.3,1.7,1.7,3.2,2.3,4.7a25.2,25.2,0,0,1,1.1,6.9,41.9,41.9,0,0,1,0,9.1,44.8,44.8,0,0,1-3.1,10.2c-.6,1.5-2.9,4.4-2.2,6s2.5-1.1,2.9-1.7a38,38,0,0,0,2.8-5.1c3.8-7.8,3.7-16.5,2-24.3a33.5,33.5,0,0,0-1.9-6.1c-.5-1.2-1.2-3.6-2.8-3.9l-.7,1.7Z" style="fill:#cfd9e0"/><path d="M13.3.5c-1.5-.4-4.1,1.2-5,2.8A3.8,3.8,0,0,0,8.1,7c.7,1.1,2,.9,2.3,2.3S8.2,37.5,7.7,41.2s0,6.2-2.5,7.8-6.5,3.9-3,6c1.6.9,2.2.3,3.7-.1s2.4,0,4,.1,7.3-2.7,5.8-5.3-2.4-1-3.1-2,1.6-23.9,1.8-33.3a17,17,0,0,1,1.6-6.9c1-2.3.8-3.2-.1-5.3,0,0-.1-.4-1-1.1A3.3,3.3,0,0,0,13.3.5Z" style="fill:#e3e9ed"/><path d="M13.4,52.4h.3a.5.5,0,0,0,.1-.7l-.4-.7-.5-.7a.5.5,0,1,0-.8.6l.4.7.5.7Z" style="fill:#bac8d3"/><path d="M3.8,57.3c1,2.9-1.1,4.2-1.4,6.8s5.2,1.5,7.4,2c4.4.9,8.3.6,12.6,1.3s7.4-.3,10.5-.3c.9,0,4.3.6,4.9-.2s-2.4-2.1-3.3-2.6a55.4,55.4,0,0,0-9-1.7A34.2,34.2,0,0,1,16,59.2c-3.2-1.7-4.4-3.2-5.9-6.2S9,50.8,7.4,50.7a6.6,6.6,0,0,0-3.5,1Z" style="fill:#e3e9ed"/><path d="M6.4,57.9h.1a11,11,0,0,1,4.2-.6.4.4,0,0,0,.4-.4.4.4,0,0,0-.4-.4,12.1,12.1,0,0,0-4.5.6.4.4,0,0,0,.1.7Z" style="fill:#bac8d3"/><path d="M8.9,64h.1a.4.4,0,0,0,.2-.5,3.4,3.4,0,0,0-3.5-1.9.4.4,0,0,0-.3.4.4.4,0,0,0,.4.3,2.7,2.7,0,0,1,2.7,1.4A.4.4,0,0,0,8.9,64Z" style="fill:#bac8d3"/><path d="M31.4,65.6a.4.4,0,0,0,.4-.3,1.7,1.7,0,0,0-.7-1.4.4.4,0,0,0-.5.6.9.9,0,0,1,.4.8.4.4,0,0,0,.3.4Z" style="fill:#bac8d3"/><path d="M25.9,66.5a.4.4,0,0,0,.4-.4,11.1,11.1,0,0,0-.3-2.7.4.4,0,0,0-.5-.3.4.4,0,0,0-.3.5,10.4,10.4,0,0,1,.3,2.5.4.4,0,0,0,.4.4Z" style="fill:#bac8d3"/><path d="M21.3,66l.3-.2a.4.4,0,0,0-.1-.5,3.8,3.8,0,0,0-2.5-.5h-.3a5.2,5.2,0,0,1-1.8-.1.4.4,0,0,0-.5.2.4.4,0,0,0,.2.5,5.8,5.8,0,0,0,2.1.1h.3a3.2,3.2,0,0,1,2,.3Z" style="fill:#bac8d3"/></g></svg>