<svg xmlns="http://www.w3.org/2000/svg" viewBox="0 0 38.8 68.3"><title>Sin título-2</title><g id="Capa_1" data-name="Capa 1"><path d="M25.7,12.4c.3,1.7-1.7,3.2-2.3,4.7a25.2,25.2,0,0,0-1.1,6.9,41.9,41.9,0,0,0,0,9.1,44.8,44.8,0,0,0,3.1,10.2c.6,1.5,2.9,4.4,2.2,6s-2.5-1.1-2.9-1.7a38,38,0,0,1-2.8-5.1c-3.8-7.8-3.7-16.5-2-24.3a33.5,33.5,0,0,1,1.9-6.1c.5-1.2,1.2-3.6,2.8-3.9l.7,1.7Z" style="fill:#cfd9e0"/><path d="M25.8.5c1.5-.4,4.1,1.2,5,2.8A3.8,3.8,0,0,1,31,7c-.7,1.1-2,.9-2.3,2.3s2.2,28.2,2.7,31.9,0,6.2,2.5,7.8,6.5,3.9,3,6c-1.6.9-2.2.3-3.7-.1s-2.4,0-4,.1-7.3-2.7-5.8-5.3,2.4-1,3.1-2-1.6-23.9-1.8-33.3A17,17,0,0,0,23,7.5c-1-2.3-.8-3.2.1-5.3,0,0,.1-.4,1-1.1A3.3,3.3,0,0,1,25.8.5Z" style="fill:#e3e9ed"/><path d="M25.7,52.4h-.3a.5.5,0,0,1-.1-.7l.4-.7.5-.7a.5.5,0,0,1,.8.6l-.4.7-.5.7Z" style="fill:#bac8d3"/><path d="M35.3,57.3c-1,2.9,1.1,4.2,1.4,6.8s-5.2,1.5-7.4,2c-4.4.9-8.3.6-12.6,1.3S9.1,67.1,6,67.1c-.9,0-4.3.6-4.9-.2s2.4-2.1,3.3-2.6a55.4,55.4,0,0,1,9-1.7,34.2,34.2,0,0,0,9.8-3.4C26.4,57.5,27.5,56,29,53s1.1-2.2,2.6-2.3a6.6,6.6,0,0,1,3.5,1Z" style="fill:#e3e9ed"/><path d="M32.7,57.9h-.1a11,11,0,0,0-4.2-.6.4.4,0,0,1-.4-.4.4.4,0,0,1,.4-.4,12.1,12.1,0,0,1,4.5.6.4.4,0,0,1-.1.7Z" style="fill:#bac8d3"/><path d="M30.2,64h-.1a.4.4,0,0,1-.2-.5,3.4,3.4,0,0,1,3.5-1.9.4.4,0,0,1,.3.4.4.4,0,0,1-.4.3,2.7,2.7,0,0,0-2.7,1.4A.4.4,0,0,1,30.2,64Z" style="fill:#bac8d3"/><path d="M7.7,65.6a.4.4,0,0,1-.4-.3A1.7,1.7,0,0,1,8,63.8a.4.4,0,0,1,.5.6.9.9,0,0,0-.4.8.4.4,0,0,1-.3.4Z" style="fill:#bac8d3"/><path d="M13.2,66.5a.4.4,0,0,1-.4-.4,11.1,11.1,0,0,1,.3-2.7.4.4,0,0,1,.5-.3.4.4,0,0,1,.3.5,10.4,10.4,0,0,0-.3,2.5.4.4,0,0,1-.4.4Z" style="fill:#bac8d3"/><path d="M17.8,66l-.3-.2a.4.4,0,0,1,.1-.5,3.8,3.8,0,0,1,2.5-.5h.3a5.2,5.2,0,0,0,1.8-.1.4.4,0,0,1,.5.2.4.4,0,0,1-.2.5,5.8,5.8,0,0,1-2.1.1H20a3.2,3.2,0,0,0-2,.3Z" style="fill:#bac8d3"/></g></svg>