<svg xmlns="http://www.w3.org/2000/svg" viewBox="0 0 27.1 50.3"><title>Sin título-2</title><g id="Capa_1" data-name="Capa 1"><path d="M9.2,5.8C6.8,5,9.6,9,10,9.7a34.9,34.9,0,0,1,4.1,8.8c.5,1.4,1,8.6,2.6,9s-.1-7.2-.4-8.3c-1-4-3.3-10.8-7-13.4Z" style="fill:#cfd9e0"/><path d="M6.9,5.5c.8.2,2.4.6,3-.3S8.3,1.9,6.7,2.4C5.8-.7-.7-.5.5,3.1,1,5,3.1,4.2,4,5S8.3,15.1,9.3,18.3s3.4,7.1,3.1,10.3c-.1,1.3-2.2,3.6-.8,4.6s3-1.3,4.1-1.6,4.1.5,3.8-2-2.4-1.5-3.4-2.6-3.4-5.9-4.6-8.2S6.9,5.5,6.9,5.5Z" style="fill:#e3e9ed"/><path d="M12.2,32.1a.5.5,0,0,1,.7-.3l.3-1.4a1,1,0,0,1,1.1-.6,1.2,1.2,0,0,1,1-.7h.3a.9.9,0,0,1,1.1-.3l.7.6a.5.5,0,0,1,.7.4v.5h.2c-.1-.2.2-.5.4-.4A11.8,11.8,0,0,1,23,32.6c1.2,1,2.5,2,3,3.5a.6.6,0,0,1-.1.6,2,2,0,0,1,0,1.1,10.8,10.8,0,0,1-.8,3.7c-.3.9-2,.9-2-.1s.1-4.8-2-6.4a18.1,18.1,0,0,0-2.3-1.4c.1,1.7,0,3.5-.1,5.2a15.1,15.1,0,0,0,.6,2.1,5.6,5.6,0,0,1,1.3,1.8c1,1.4,1.7,2.8,2.8,4.1a4.9,4.9,0,0,0,1.7-.8c.5-.4,1.6-.3,1.5.5a1.9,1.9,0,0,1-.8,1.4.8.8,0,0,1-.7.9h-.5c-1.4.3-3.3.9-4.6.6s-2-1.3-2.7-1.9A25.7,25.7,0,0,1,14,44.1a10.3,10.3,0,0,1-2.7-3.1C10,38.3,11.5,34.7,12.2,32.1Z" style="fill:#e3e9ed"/><path d="M14.9,41.4l-2.3-.3a.4.4,0,1,1,.2-.7,9.4,9.4,0,0,0,5.4-.3.4.4,0,0,1,.3.7A10.3,10.3,0,0,1,14.9,41.4Z" style="fill:#bac8d3"/><path d="M14.5,36.5H13.1a.4.4,0,0,1-.3-.4.4.4,0,0,1,.4-.3,6.7,6.7,0,0,0,4.3-.6.4.4,0,0,1,.3.7A7.5,7.5,0,0,1,14.5,36.5Z" style="fill:#bac8d3"/><path d="M18.9,48.6l-.3-.2a.4.4,0,0,1,.2-.5l1.8-.6,1.7-.6a.4.4,0,0,1,.3.7l-1.8.6-1.7.6Z" style="fill:#bac8d3"/><path d="M16.1,45.8l-.3-.2a.4.4,0,0,1,.2-.5l3.2-1.7a.4.4,0,0,1,.5.2.4.4,0,0,1-.2.5l-3.2,1.7Z" style="fill:#bac8d3"/><path d="M19.9,44.7l-.3-.2a.4.4,0,0,1,.1-.5,3.7,3.7,0,0,0,1-1,.4.4,0,0,1,.6.4,4.5,4.5,0,0,1-1.2,1.3Z" style="fill:#bac8d3"/><path d="M22.5,47.4a.4.4,0,0,1-.1-.7.9.9,0,0,0,.7-.5.4.4,0,0,1,.5-.2.4.4,0,0,1,.2.5,1.6,1.6,0,0,1-1.2.9Z" style="fill:#bac8d3"/><path d="M24,37.7h-.5a.4.4,0,0,1,.1-.7,3.7,3.7,0,0,0,1.7-.2.4.4,0,1,1,.3.7A4.3,4.3,0,0,1,24,37.7Z" style="fill:#bac8d3"/><path d="M21.2,34l-.3-.2a.4.4,0,0,1,.1-.5,1.8,1.8,0,0,0,.8-1.2.4.4,0,1,1,.7.1,2.5,2.5,0,0,1-1.1,1.7Z" style="fill:#bac8d3"/><path d="M20.9,48.6h-.2c-1.1-.5-2.4-2-3.7-3.4a16.5,16.5,0,0,0-2.8-2.7.4.4,0,0,1,.4-.6,16.4,16.4,0,0,1,3,2.9,14.4,14.4,0,0,0,3.5,3.2.4.4,0,0,1-.2.7Z" style="fill:#bac8d3"/><path d="M25.2,47.8h0L23,47.6l-1-.2a2.6,2.6,0,0,1-.9-.8l-5-6.2a.4.4,0,0,1,.6-.5l5,6.2a2,2,0,0,0,.6.6l.8.2,2.1.2a.4.4,0,0,1,0,.7Z" style="fill:#bac8d3"/><path d="M16.5,38.8a.4.4,0,0,1-.4-.3l-.4-1.8a.4.4,0,0,1,.3-.5.4.4,0,0,1,.5.3l.4,1.8a.4.4,0,0,1-.3.5Z" style="fill:#bac8d3"/><path d="M13.1,39.5H13a.4.4,0,0,1-.2-.5,3.3,3.3,0,0,0,0-1.9.4.4,0,0,1,.2-.5.4.4,0,0,1,.5.2,4.1,4.1,0,0,1,0,2.4A.4.4,0,0,1,13.1,39.5Z" style="fill:#bac8d3"/></g></svg>