<svg xmlns="http://www.w3.org/2000/svg" viewBox="0 0 28.4 50.9"><title>Sin título-2</title><g id="Capa_1" data-name="Capa 1"><path d="M19,5.9c2.4-.7-.4,3.3-.8,3.9A34.9,34.9,0,0,0,14,18.6c-.5,1.4-1,8.6-2.6,9s.1-7.2.4-8.3c1-4,3.3-10.8,7-13.4Z" style="fill:#cfd9e0"/><path d="M21.3,5.6c-.8.2-2.4.6-3-.3S19.9,2,21.5,2.6c.9-3.2,7.4-2.9,6.2.7-.6,1.9-2.7,1.1-3.5,1.9s-4.3,10.1-5.3,13.3-3.4,7.1-3.1,10.3c.1,1.3,2.2,3.6.8,4.6s-3-1.3-4.1-1.6-4.1.5-3.8-2S11,28.1,12,27s3.4-5.9,4.6-8.2S21.3,5.6,21.3,5.6Z" style="fill:#e3e9ed"/><path d="M16,32.2a.5.5,0,0,0-.7-.3L15,30.5a1,1,0,0,0-1.1-.6,1.2,1.2,0,0,0-1-.7h-.3a.9.9,0,0,0-1.1-.3l-.7.6a.5.5,0,0,0-.7.4v.5H9.6c.1-.2-.2-.5-.4-.4a11.8,11.8,0,0,0-4.1,2.6c-1.2,1-2.5,2-3,3.5a.6.6,0,0,0,.1.6,2,2,0,0,0,0,1.1,10.8,10.8,0,0,0,.8,3.7c.3.9,2,.9,2-.1S5,36.6,7.1,35a18.1,18.1,0,0,1,2.3-1.4c-.1,1.7,0,3.5.1,5.2a15.1,15.1,0,0,1-.6,2.1,5.6,5.6,0,0,0-1.3,1.8c-1,1.4-1.7,2.8-2.8,4.1A4.9,4.9,0,0,1,3.1,46c-.5-.4-1.6-.3-1.5.5a1.9,1.9,0,0,0,.8,1.4.8.8,0,0,0,.7.9h.5c1.4.3,3.3.9,4.6.6s2-1.3,2.7-1.9a25.7,25.7,0,0,0,3.4-3.3A10.3,10.3,0,0,0,16.9,41C18.2,38.4,16.7,34.8,16,32.2Z" style="fill:#e3e9ed"/><path d="M13.3,41.6a10.3,10.3,0,0,1-3.5-.6.4.4,0,1,1,.3-.7,9.4,9.4,0,0,0,5.4.3.4.4,0,0,1,.5.3.4.4,0,0,1-.3.5Z" style="fill:#bac8d3"/><path d="M13.7,36.6a7.5,7.5,0,0,1-3.4-.8.4.4,0,1,1,.3-.7,6.7,6.7,0,0,0,4.3.6.4.4,0,1,1,.1.7Z" style="fill:#bac8d3"/><path d="M9.3,48.7H9.2l-1.7-.6-1.8-.6a.4.4,0,1,1,.3-.7l1.7.6,1.8.6a.4.4,0,0,1,.2.5Z" style="fill:#bac8d3"/><path d="M12.1,45.9h-.2L8.7,44.1a.4.4,0,0,1-.2-.5.4.4,0,0,1,.5-.2l3.2,1.7a.4.4,0,0,1,.2.5Z" style="fill:#bac8d3"/><path d="M8.3,44.8H8a4.5,4.5,0,0,1-1.2-1.3.4.4,0,0,1,.6-.4,3.7,3.7,0,0,0,1,1,.4.4,0,0,1,.1.5Z" style="fill:#bac8d3"/><path d="M5.7,47.5H5.7a1.6,1.6,0,0,1-1.2-.9.4.4,0,0,1,.7-.3.9.9,0,0,0,.7.5.4.4,0,0,1-.1.7Z" style="fill:#bac8d3"/><path d="M4.2,37.8a4.3,4.3,0,0,1-1.6-.3.4.4,0,1,1,.3-.7,3.6,3.6,0,0,0,1.7.2.4.4,0,0,1,.4.3.4.4,0,0,1-.3.4Z" style="fill:#bac8d3"/><path d="M7,34.1H6.8a2.5,2.5,0,0,1-1.1-1.7.4.4,0,1,1,.7-.1,1.8,1.8,0,0,0,.8,1.2.4.4,0,0,1,.1.5Z" style="fill:#bac8d3"/><path d="M7.2,48.7a.4.4,0,0,1-.2-.7,14.4,14.4,0,0,0,3.5-3.2,16.4,16.4,0,0,1,3-2.9.4.4,0,1,1,.4.6,16.5,16.5,0,0,0-2.8,2.7c-1.3,1.4-2.6,2.9-3.7,3.4Z" style="fill:#bac8d3"/><path d="M3,47.9a.4.4,0,0,1,0-.7L5.1,47l.8-.2a1.9,1.9,0,0,0,.6-.6l5-6.2a.4.4,0,0,1,.6.5l-5,6.2a2.6,2.6,0,0,1-.9.8l-1,.2L3,47.9Z" style="fill:#bac8d3"/><path d="M11.7,39h-.1a.4.4,0,0,1-.3-.5l.4-1.8a.4.4,0,0,1,.5-.3.4.4,0,0,1,.3.5l-.4,1.8A.4.4,0,0,1,11.7,39Z" style="fill:#bac8d3"/><path d="M15.1,39.6a.4.4,0,0,1-.4-.3,4.1,4.1,0,0,1,0-2.4.4.4,0,1,1,.7.2,3.3,3.3,0,0,0,0,1.9.4.4,0,0,1-.2.5Z" style="fill:#bac8d3"/></g></svg>