<svg xmlns="http://www.w3.org/2000/svg" viewBox="0 0 39.1 44.6"><title>Sin título-2</title><g id="Capa_1" data-name="Capa 1"><path d="M12.7,1.9C6.2,4.8.9,11.2.1,18.3a18,18,0,0,0,.2,4c.3,2.7,2.3,4.6,4.3,6.3S8.5,32,9.2,35c.3,1.3.3,2.8.7,4.1s1.5,2.2,3,3.1c5.3,3.2,9.9,2.9,15.5.9,3.1-1.1,4.9-2.4,5.7-5.7s.5-5.7,2-8.6,2.9-5.9,2.9-9-1.2-6-2.3-8.7a16.9,16.9,0,0,0-9-9.8A19.3,19.3,0,0,0,12.7,1.9Z" style="fill:#f8fafb"/><path d="M21.8,23.4c-.6,1.1-1.7,3.7-1.6,4.9s1.2-1.8,1.9-2.5c.4,1.1.8,2.4,1.9,2.9.5-1.3-1.1-4.4-1.9-5.4Z" style="fill:#08192b"/><path d="M32,30.4c.3,1.8-1.5,8.5-3.2,4.1-.8,1.8-2.6,2.4-3.6.3-.7,1.6-2.2,2.1-3.3.5a1.2,1.2,0,0,1-2.5-.3c-1,1.2-3.7,1.7-3.9-.5,0,.3-1.2,1.2-1.6,1.3s-.7-.1-1-.5-1.5-7.5-3.7-5.9,1.4,4.3,1.6,5.6,0,1.9.2,2.9.8,2.2,1.2,1.1,1.7-3.4,2.7-.7c.8-1.8,2.6-2.4,3.6-.3.7-1.6,2.2-2.1,3.3-.5a1.2,1.2,0,0,1,2.5.3c1-1.2,3.7-1.7,3.9.5,0-.8,1.7-1.5,2.3-1.1s.3,2.1,1.2,2.2.7-3.1.9-3.8a9.1,9.1,0,0,1,1.3-2.6A10.7,10.7,0,0,0,35,31.2c.2-.4.6-2.1-.2-2.2S33.4,30.9,32,30.4Z" style="fill:#08192b"/><path d="M13.8,26.5c-2,.3-3.2-.6-4.6-1.9a4.3,4.3,0,0,1-1.4-3.2c0-1.7.6-3.9,2.1-4.9,4.6-3,10.6,2.6,7.9,7.3A5.3,5.3,0,0,1,13.8,26.5Z" style="fill:#08192b"/><path d="M29.5,15.5c-4.6,1-4.7,9.7.4,10.4,3.1.4,4.7-2.8,4.8-5.4S32.5,14.9,29.5,15.5Z" style="fill:#08192b"/><path d="M5.1,20.7l-.3-.2a.4.4,0,0,1,.2-.5c1.5-.8,1.6-3,1.5-4.2a18.6,18.6,0,0,0-.3-2.4.4.4,0,1,1,.7-.1,19.5,19.5,0,0,1,.3,2.5c.1,1.4-.1,3.9-1.9,4.9Z" style="fill:#bac8d3"/><path d="M21.9,21a.4.4,0,0,1-.4-.3l-.6-2.2a.4.4,0,1,1,.7-.2l.6,2.2a.4.4,0,0,1-.3.5Z" style="fill:#bac8d3"/><path d="M28.5,27.9a3.3,3.3,0,0,1-2.1-.8.4.4,0,1,1,.5-.6,2.5,2.5,0,0,0,2.4.5.4.4,0,0,1,.2.7Z" style="fill:#bac8d3"/><path d="M16.3,27.8h-.2a.4.4,0,0,1,0-.7h.2a.4.4,0,0,1,0,.8Z" style="fill:#bac8d3"/><path d="M22.5,6.2a.4.4,0,0,1-.4-.4V5.2a.4.4,0,1,1,.8,0v.6A.4.4,0,0,1,22.5,6.2Z" style="fill:#bac8d3"/><path d="M26.2,6.6h-.1A3.4,3.4,0,0,1,24.9,6a.4.4,0,1,1,.4-.6l1,.4a.4.4,0,0,1-.1.7Z" style="fill:#bac8d3"/><path d="M35,18.7h0a.4.4,0,0,1-.4-.4,7.4,7.4,0,0,0-.2-2.3.4.4,0,1,1,.7-.2,8.1,8.1,0,0,1,.2,2.5A.4.4,0,0,1,35,18.7Z" style="fill:#bac8d3"/></g></svg>