<svg xmlns="http://www.w3.org/2000/svg" viewBox="0 0 43.9 42.5"><title>Sin título-2</title><g id="Capa_1" data-name="Capa 1"><path d="M1,1.2C2.1.4,3.5,1,4.5,1.5s1,.9,1.5,1.1.9-.4,1.3-.9A3.8,3.8,0,0,1,8.8.5a2.5,2.5,0,0,1,2-.1l.6.3a1.6,1.6,0,0,1,.7,1.6c.4,1.2,0,2.5.4,3.7s21.4,25,23.6,24.5,2.7-.7,4.3.2,4,4.4,2.1,6.4-5.2-1.6-6.9,2.1c-.5,1.2-.4,2.7-2,2.6s-2.3-1.9-2.5-3.2.4-2.6-.4-4.1S10.1,10.4,9.6,9.9,4.8,9.1,2.9,7.5a12.5,12.5,0,0,1-2-3.6A1.7,1.7,0,0,1,1,1.2Z" style="fill:#e3e9ed"/><path d="M5.7,7.6l.6-.2a.4.4,0,1,0-.5-.6H5.7l-.4-.2a1.8,1.8,0,0,1-.2-.9.4.4,0,0,0-.4-.3.4.4,0,0,0-.3.4,2.5,2.5,0,0,0,.4,1.3,1.3,1.3,0,0,0,.9.5Z" style="fill:#bac8d3"/><path d="M11.4,4.1a.4.4,0,0,0,.4-.3V3.3a.4.4,0,0,0-.3-.4.4.4,0,0,0-.4.3v.5a.4.4,0,0,0,.3.4Z" style="fill:#bac8d3"/><path d="M33,38.7h.2a.4.4,0,0,0,.2-.5l-.4-.8a.4.4,0,0,0-.7.3l.4.8Z" style="fill:#bac8d3"/><path d="M41.3,36h.2a1.8,1.8,0,0,0,.6-1.6,1.9,1.9,0,0,0-1-1.5.4.4,0,1,0-.3.7,1.1,1.1,0,0,1,.6.9,1,1,0,0,1-.3.9.4.4,0,0,0-.1.5Z" style="fill:#bac8d3"/></g></svg>