<svg xmlns="http://www.w3.org/2000/svg" viewBox="0 0 43.8 42.8"><title>Sin título-2</title><g id="Capa_1" data-name="Capa 1"><path d="M42.8,1.5c-1.1-.8-2.5-.2-3.5.3s-1,.9-1.5,1.1-.9-.4-1.3-.9A3.8,3.8,0,0,0,35,.8a2.5,2.5,0,0,0-2-.1l-.6.3a1.6,1.6,0,0,0-.7,1.6c-.4,1.2,0,2.5-.4,3.7S9.9,31.3,7.7,30.9s-2.7-.7-4.3.2-4,4.4-2.1,6.4,5.2-1.6,6.9,2.1c.5,1.2.4,2.7,2,2.6s2.3-1.9,2.5-3.2-.4-2.6.4-4.1S33.7,10.7,34.2,10.2s4.8-.8,6.7-2.4a12.5,12.5,0,0,0,2-3.6A1.7,1.7,0,0,0,42.8,1.5Z" style="fill:#e3e9ed"/><path d="M38.1,7.9l-.6-.2a.4.4,0,0,1,.5-.6h.2l.4-.2a1.8,1.8,0,0,0,.2-.9.4.4,0,0,1,.4-.3.4.4,0,0,1,.3.4,2.5,2.5,0,0,1-.4,1.3,1.3,1.3,0,0,1-.9.5Z" style="fill:#bac8d3"/><path d="M32.4,4.4a.4.4,0,0,1-.4-.3V3.6a.4.4,0,0,1,.3-.4.4.4,0,0,1,.4.3V4a.4.4,0,0,1-.3.4Z" style="fill:#bac8d3"/><path d="M10.8,39h-.2a.4.4,0,0,1-.2-.5l.4-.8a.4.4,0,1,1,.7.3l-.4.8Z" style="fill:#bac8d3"/><path d="M2.5,36.3H2.3a1.8,1.8,0,0,1-.6-1.6,1.9,1.9,0,0,1,1-1.5.4.4,0,0,1,.3.7,1.1,1.1,0,0,0-.6.9,1,1,0,0,0,.3.9.4.4,0,0,1,.1.5Z" style="fill:#bac8d3"/></g></svg>